<?xml version="1.0" encoding="utf-8"?>
<!-- Generator: Adobe Illustrator 18.1.1, SVG Export Plug-In . SVG Version: 6.00 Build 0)  -->
<svg version="1.1" id="Layer_1" xmlns="http://www.w3.org/2000/svg" xmlns:xlink="http://www.w3.org/1999/xlink" x="0px" y="0px"
	 viewBox="0 0 841.9 595.3" enable-background="new 0 0 841.9 595.3" xml:space="preserve">
<g>
	<path d="M151.6,235.1c-1.1,1.1-1.6,2.5-1.6,4c0,1.4,0.5,2.9,1.6,4c2.2,2.2,5.8,2.2,7.9,0c23.8-23.8,62.4-23.7,86.2,0
		c2.2,2.2,5.8,2.2,7.9,0c2.2-2.2,2.2-5.8,0-7.9C225.6,207,179.8,207,151.6,235.1z"/>
	<path d="M166.5,254.1c-1.1,1.1-1.6,2.5-1.6,4c0,1.4,0.5,2.9,1.6,4c2.2,2.2,5.7,2.2,7.9,0c15.6-15.5,40.9-15.5,56.4,0
		c2.2,2.2,5.7,2.2,7.9,0c2.2-2.2,2.2-5.8,0-7.9C218.9,234.1,186.4,234.1,166.5,254.1z"/>
</g>
<g>
	<path d="M612.8,235.1c-1.1,1.1-1.6,2.5-1.6,4c0,1.4,0.5,2.9,1.6,4c2.2,2.2,5.8,2.2,7.9,0c23.8-23.8,62.4-23.7,86.2,0
		c2.2,2.2,5.8,2.2,7.9,0c2.2-2.2,2.2-5.8,0-7.9C686.8,207,641,207,612.8,235.1z"/>
	<path d="M627.7,254.1c-1.1,1.1-1.6,2.5-1.6,4c0,1.4,0.5,2.9,1.6,4c2.2,2.2,5.7,2.2,7.9,0c15.6-15.5,40.9-15.5,56.4,0
		c2.2,2.2,5.7,2.2,7.9,0c2.2-2.2,2.2-5.8,0-7.9C680.1,234.1,647.7,234.1,627.7,254.1z"/>
</g>
<g>
	<path d="M140.3,343.6c0,13.1-4.7,23.3-14.2,30.7c-9.4,7.4-22.5,11.2-39.1,11.2c-16.6,0-30.2-2.6-40.8-7.7v-22.7
		c6.7,3.1,13.8,5.6,21.3,7.4s14.5,2.7,21,2.7c9.5,0,16.5-1.8,21-5.4c4.5-3.6,6.8-8.5,6.8-14.6c0-5.5-2.1-10.1-6.2-14
		c-4.2-3.8-12.7-8.3-25.7-13.6c-13.4-5.4-22.8-11.6-28.3-18.6c-5.5-7-8.2-15.3-8.2-25.1c0-12.3,4.4-21.9,13.1-28.9
		c8.7-7,20.4-10.5,35.1-10.5c14.1,0,28.1,3.1,42,9.2l-7.6,19.6c-13.1-5.5-24.7-8.2-35-8.2c-7.8,0-13.7,1.7-17.7,5.1
		c-4,3.4-6,7.9-6,13.4c0,3.8,0.8,7.1,2.4,9.8c1.6,2.7,4.3,5.3,7.9,7.7c3.7,2.4,10.3,5.6,19.9,9.5c10.8,4.5,18.7,8.7,23.7,12.6
		c5,3.9,8.7,8.3,11.1,13.2C139.1,331.2,140.3,337,140.3,343.6z"/>
	<path d="M202.4,385.5c-17.3,0-30.8-5-40.5-15.1c-9.7-10.1-14.6-24-14.6-41.6c0-18.1,4.5-32.4,13.6-42.8c9-10.4,21.5-15.6,37.3-15.6
		c14.7,0,26.3,4.5,34.8,13.4c8.5,8.9,12.8,21.2,12.8,36.8v12.8h-74c0.3,10.8,3.2,19.1,8.7,24.9c5.5,5.8,13.2,8.7,23.2,8.7
		c6.6,0,12.7-0.6,18.3-1.9c5.7-1.2,11.7-3.3,18.2-6.2V378c-5.8,2.7-11.6,4.7-17.5,5.8C216.7,384.9,210,385.5,202.4,385.5z"/>
	<path d="M305.6,366.4c5.8,0,11.5-0.9,17.3-2.7v17.8c-2.6,1.1-6,2.1-10.1,2.9s-8.4,1.2-12.8,1.2c-22.4,0-33.6-11.8-33.6-35.4v-59.9
		h-15.2v-10.4l16.3-8.6l8-23.5h14.6v24.7h31.6v17.9h-31.6v59.5c0,5.7,1.4,9.9,4.3,12.6C297.2,365.1,301,366.4,305.6,366.4z"/>
	<path d="M360.5,383.5h-23.6V227.2h23.6V383.5z"/>
	<path d="M526.5,351.9c0,10.9-4,19.2-11.9,25c-7.9,5.8-19.2,8.7-34,8.7c-14.8,0-26.7-2.2-35.7-6.7v-20.4c13.1,6,25.2,9,36.5,9
		c14.5,0,21.8-4.4,21.8-13.2c0-2.8-0.8-5.2-2.4-7c-1.6-1.9-4.3-3.8-7.9-5.8c-3.7-2-8.8-4.3-15.4-6.8c-12.8-5-21.4-9.9-26-14.9
		c-4.5-5-6.8-11.4-6.8-19.3c0-9.5,3.8-16.9,11.5-22.2c7.7-5.3,18.1-7.9,31.3-7.9c13.1,0,25.4,2.6,37.1,7.9l-7.6,17.8
		c-12-5-22.1-7.4-30.2-7.4c-12.5,0-18.7,3.6-18.7,10.6c0,3.5,1.6,6.4,4.9,8.8c3.2,2.4,10.3,5.7,21.2,9.9c9.2,3.6,15.8,6.8,20,9.7
		c4.2,2.9,7.2,6.3,9.2,10.2C525.5,341.9,526.5,346.5,526.5,351.9z"/>
	<path d="M585.2,366.4c5.8,0,11.5-0.9,17.3-2.7v17.8c-2.6,1.1-6,2.1-10.1,2.9s-8.4,1.2-12.8,1.2c-22.4,0-33.6-11.8-33.6-35.4v-59.9
		h-15.2v-10.4l16.3-8.6l8-23.5h14.6v24.7h31.6v17.9h-31.6v59.5c0,5.7,1.4,9.9,4.3,12.6C576.8,365.1,580.5,366.4,585.2,366.4z"/>
	<path d="M664.9,385.5c-17.3,0-30.8-5-40.5-15.1c-9.7-10.1-14.6-24-14.6-41.6c0-18.1,4.5-32.4,13.6-42.8c9-10.4,21.5-15.6,37.3-15.6
		c14.7,0,26.3,4.5,34.8,13.4c8.5,8.9,12.8,21.2,12.8,36.8v12.8h-74c0.3,10.8,3.2,19.1,8.7,24.9c5.5,5.8,13.2,8.7,23.2,8.7
		c6.6,0,12.7-0.6,18.3-1.9c5.7-1.2,11.7-3.3,18.2-6.2V378c-5.8,2.7-11.6,4.7-17.5,5.8C679.2,384.9,672.5,385.5,664.9,385.5z"/>
	<path d="M783.1,270.4c4.8,0,8.7,0.3,11.8,1l-2.3,22c-3.4-0.8-6.8-1.2-10.4-1.2c-9.4,0-17.1,3.1-23,9.2c-5.9,6.2-8.8,14.2-8.8,24
		v58.1h-23.6V272.4h18.5l3.1,19.6h1.2c3.7-6.6,8.5-11.9,14.4-15.8C769.9,272.3,776.3,270.4,783.1,270.4z"/>
</g>
<g>
	<g>
		<path d="M437.2,292.6h-65.9v-65.9h65.9V292.6z M377.7,286.4H431V233h-53.3V286.4z"/>
	</g>
</g>
<path fill="#E94E1B" d="M378.5,255.7l23.2-14.3l11.5,22.5c0,0,16.9-37.6,29.4-44.1l6.1,24.2c0,0-26.8,26.3-33.8,42
	C414.9,286,389.5,257.4,378.5,255.7z"/>
<path d="M371.4,300.3v84.5h65.9v-84.5H371.4z M386.1,379.6h-8.9v-10.6h8.9V379.6z M386.1,363.7h-8.9v-10.6h8.9V363.7z M386.1,347.9
	h-8.9v-10.6h8.9V347.9z M386.1,332h-8.9v-10.6h8.9V332z M386.1,316.2h-8.9v-10.6h8.9V316.2z M431.4,379.6h-42.2v-10.6h42.2V379.6z
	 M431.4,363.7h-42.2v-10.6h42.2V363.7z M431.4,347.9h-42.2v-10.6h42.2V347.9z M431.4,332h-42.2v-10.6h42.2V332z M431.4,316.2h-42.2
	v-10.6h42.2V316.2z"/>
<path fill="#E94E1B" d="M681.4,311.5c1.3-2.8,2.1-5.9,2.1-9.2c0-3.3-0.8-6.4-2.1-9.2c1.3-0.7,2.1-2,2.1-3.5c0-2.2-1.8-3.9-3.9-3.9
	c-1.1,0-2,0.4-2.7,1.1c-3.8-3.7-9-5.9-14.7-5.9s-10.9,2.3-14.7,5.9c-0.7-0.7-1.7-1.1-2.7-1.1c-2.2,0-3.9,1.8-3.9,3.9
	c0,1.5,0.9,2.8,2.1,3.5c-1.3,2.8-2.1,5.9-2.1,9.2c0,3.3,0.8,6.4,2.1,9.2c-1.3,0.7-2.1,2-2.1,3.5c0,2.2,1.8,3.9,3.9,3.9
	c1.1,0,2-0.4,2.7-1.1c3.8,3.7,9,5.9,14.7,5.9s10.9-2.3,14.7-5.9c0.7,0.7,1.7,1.1,2.7,1.1c2.2,0,3.9-1.8,3.9-3.9
	C683.6,313.5,682.7,312.2,681.4,311.5z M644.7,288.3c0.7,0,1.3,0.6,1.3,1.3c0,0.7-0.6,1.3-1.3,1.3c-0.7,0-1.3-0.6-1.3-1.3
	C643.4,288.9,644,288.3,644.7,288.3z M644.7,316.3c-0.7,0-1.3-0.6-1.3-1.3c0-0.7,0.6-1.3,1.3-1.3c0.7,0,1.3,0.6,1.3,1.3
	C646,315.7,645.4,316.3,644.7,316.3z M676.8,312.3c-0.2,0.3-0.4,0.5-0.6,0.8c-3.2,4.2-8.3,6.9-14,6.9c-5.7,0-10.8-2.7-14-6.9
	c-0.2-0.3-0.4-0.6-0.6-0.8c-1.9-2.8-3.1-6.3-3.1-10c0-3.7,1.1-7.1,3.1-10c0.2-0.3,0.4-0.5,0.6-0.8c3.2-4.2,8.3-6.9,14-6.9
	c5.7,0,10.8,2.7,14,6.9c0.2,0.3,0.4,0.6,0.6,0.8c1.9,2.8,3.1,6.3,3.1,10C679.9,306,678.8,309.5,676.8,312.3z M679.6,316.3
	c-0.7,0-1.3-0.6-1.3-1.3c0-0.7,0.6-1.3,1.3-1.3c0.7,0,1.3,0.6,1.3,1.3C681,315.7,680.4,316.3,679.6,316.3z M679.6,291
	c-0.7,0-1.3-0.6-1.3-1.3c0-0.7,0.6-1.3,1.3-1.3c0.7,0,1.3,0.6,1.3,1.3C681,290.4,680.4,291,679.6,291z M662.2,289.4
	c-7.2,0-13,5.8-13,13c0,7.2,5.8,13,13,13s13-5.8,13-13C675.1,295.2,669.3,289.4,662.2,289.4z M662.2,307.4c-2.8,0-5.1-2.3-5.1-5.1
	c0-2.8,2.3-5.1,5.1-5.1s5.1,2.3,5.1,5.1C667.2,305.1,665,307.4,662.2,307.4z"/>
<path fill="#E94E1B" d="M220.2,311.5c1.3-2.8,2.1-5.9,2.1-9.2c0-3.3-0.8-6.4-2.1-9.2c1.3-0.7,2.1-2,2.1-3.5c0-2.2-1.8-3.9-3.9-3.9
	c-1.1,0-2,0.4-2.7,1.1c-3.8-3.7-9-5.9-14.7-5.9s-10.9,2.3-14.7,5.9c-0.7-0.7-1.7-1.1-2.7-1.1c-2.2,0-3.9,1.8-3.9,3.9
	c0,1.5,0.9,2.8,2.1,3.5c-1.3,2.8-2.1,5.9-2.1,9.2c0,3.3,0.8,6.4,2.1,9.2c-1.3,0.7-2.1,2-2.1,3.5c0,2.2,1.8,3.9,3.9,3.9
	c1.1,0,2-0.4,2.7-1.1c3.8,3.7,9,5.9,14.7,5.9s10.9-2.3,14.7-5.9c0.7,0.7,1.7,1.1,2.7,1.1c2.2,0,3.9-1.8,3.9-3.9
	C222.3,313.5,221.5,312.2,220.2,311.5z M183.5,288.3c0.7,0,1.3,0.6,1.3,1.3c0,0.7-0.6,1.3-1.3,1.3c-0.7,0-1.3-0.6-1.3-1.3
	C182.1,288.9,182.7,288.3,183.5,288.3z M183.5,316.3c-0.7,0-1.3-0.6-1.3-1.3c0-0.7,0.6-1.3,1.3-1.3c0.7,0,1.3,0.6,1.3,1.3
	C184.8,315.7,184.2,316.3,183.5,316.3z M215.6,312.3c-0.2,0.3-0.4,0.5-0.6,0.8c-3.2,4.2-8.3,6.9-14,6.9s-10.8-2.7-14-6.9
	c-0.2-0.3-0.4-0.6-0.6-0.8c-1.9-2.8-3.1-6.3-3.1-10c0-3.7,1.1-7.1,3.1-10c0.2-0.3,0.4-0.5,0.6-0.8c3.2-4.2,8.3-6.9,14-6.9
	c5.7,0,10.8,2.7,14,6.9c0.2,0.3,0.4,0.6,0.6,0.8c1.9,2.8,3.1,6.3,3.1,10C218.7,306,217.5,309.5,215.6,312.3z M218.4,316.3
	c-0.7,0-1.3-0.6-1.3-1.3c0-0.7,0.6-1.3,1.3-1.3c0.7,0,1.3,0.6,1.3,1.3C219.7,315.7,219.1,316.3,218.4,316.3z M218.4,291
	c-0.7,0-1.3-0.6-1.3-1.3c0-0.7,0.6-1.3,1.3-1.3c0.7,0,1.3,0.6,1.3,1.3C219.7,290.4,219.1,291,218.4,291z M200.9,289.4
	c-7.2,0-13,5.8-13,13c0,7.2,5.8,13,13,13s13-5.8,13-13C213.9,295.2,208.1,289.4,200.9,289.4z M200.9,307.4c-2.8,0-5.1-2.3-5.1-5.1
	c0-2.8,2.3-5.1,5.1-5.1s5.1,2.3,5.1,5.1C206,305.1,203.7,307.4,200.9,307.4z"/>
</svg>
